<svg width="680" height="157" viewBox="0 0 680 157" fill="none" xmlns="http://www.w3.org/2000/svg">
<rect x="1.5" y="1.5" width="677" height="154" rx="18.5" fill="white" stroke="#6441A5" stroke-width="3"/>
<path d="M0 20C0 8.95431 8.95431 0 20 0H280V157H20C8.95431 157 0 148.046 0 137V20Z" fill="#6441A5"/>
<path d="M320.267 118.798C315.023 118.798 310.387 117.886 306.359 116.062C302.407 114.238 299.291 111.692 297.011 108.424C294.731 105.156 293.515 101.508 293.363 97.48H301.799C302.179 101.356 303.889 104.776 306.929 107.74C309.969 110.628 314.415 112.072 320.267 112.072C325.663 112.072 329.919 110.704 333.035 107.968C336.227 105.156 337.823 101.622 337.823 97.366C337.823 93.946 336.949 91.21 335.201 89.158C333.453 87.03 331.287 85.472 328.703 84.484C326.119 83.42 322.547 82.28 317.987 81.064C312.667 79.62 308.449 78.214 305.333 76.846C302.217 75.478 299.557 73.35 297.353 70.462C295.149 67.574 294.047 63.66 294.047 58.72C294.047 54.616 295.111 50.968 297.239 47.776C299.367 44.508 302.369 41.962 306.245 40.138C310.121 38.314 314.567 37.402 319.583 37.402C326.955 37.402 332.883 39.226 337.367 42.874C341.927 46.446 344.549 51.082 345.233 56.782H336.569C336.037 53.514 334.251 50.626 331.211 48.118C328.171 45.534 324.067 44.242 318.899 44.242C314.111 44.242 310.121 45.534 306.929 48.118C303.737 50.626 302.141 54.084 302.141 58.492C302.141 61.836 303.015 64.534 304.763 66.586C306.511 68.638 308.677 70.196 311.261 71.26C313.921 72.324 317.493 73.464 321.977 74.68C327.145 76.124 331.325 77.568 334.517 79.012C337.709 80.38 340.407 82.508 342.611 85.396C344.815 88.284 345.917 92.16 345.917 97.024C345.917 100.748 344.929 104.282 342.953 107.626C340.977 110.97 338.051 113.668 334.175 115.72C330.299 117.772 325.663 118.798 320.267 118.798ZM366.924 69.436C368.9 65.256 372.016 61.798 376.272 59.062C380.604 56.25 385.734 54.844 391.662 54.844C397.286 54.844 402.34 56.174 406.824 58.834C411.384 61.418 414.918 65.142 417.426 70.006C420.01 74.794 421.302 80.38 421.302 86.764C421.302 93.148 420.01 98.772 417.426 103.636C414.918 108.5 411.384 112.262 406.824 114.922C402.34 117.582 397.286 118.912 391.662 118.912C385.81 118.912 380.718 117.544 376.386 114.808C372.054 111.996 368.9 108.5 366.924 104.32V147.412H359.058V55.756H366.924V69.436ZM413.208 86.764C413.208 81.596 412.182 77.15 410.13 73.426C408.154 69.626 405.418 66.738 401.922 64.762C398.426 62.786 394.474 61.798 390.066 61.798C385.81 61.798 381.896 62.824 378.324 64.876C374.828 66.928 372.054 69.854 370.002 73.654C367.95 77.454 366.924 81.862 366.924 86.878C366.924 91.894 367.95 96.302 370.002 100.102C372.054 103.902 374.828 106.828 378.324 108.88C381.896 110.932 385.81 111.958 390.066 111.958C394.474 111.958 398.426 110.97 401.922 108.994C405.418 106.942 408.154 104.016 410.13 100.216C412.182 96.34 413.208 91.856 413.208 86.764ZM463.345 54.616C468.057 54.616 472.275 55.604 475.999 57.58C479.799 59.556 482.763 62.596 484.891 66.7C487.095 70.728 488.197 75.668 488.197 81.52V118H480.331V82.432C480.331 75.668 478.621 70.5 475.201 66.928C471.857 63.356 467.259 61.57 461.407 61.57C455.403 61.57 450.615 63.47 447.043 67.27C443.471 71.07 441.685 76.656 441.685 84.028V118H433.705V33.64H441.685V66.358C443.661 62.634 446.549 59.746 450.349 57.694C454.225 55.642 458.557 54.616 463.345 54.616ZM559.882 83.686C559.882 86.422 559.806 88.512 559.654 89.956H508.012C508.24 94.668 509.38 98.696 511.432 102.04C513.484 105.384 516.182 107.93 519.526 109.678C522.87 111.35 526.518 112.186 530.47 112.186C535.638 112.186 539.97 110.932 543.466 108.424C547.038 105.916 549.394 102.534 550.534 98.278H558.97C557.45 104.358 554.182 109.336 549.166 113.212C544.226 117.012 537.994 118.912 530.47 118.912C524.618 118.912 519.374 117.62 514.738 115.036C510.102 112.376 506.454 108.652 503.794 103.864C501.21 99 499.918 93.338 499.918 86.878C499.918 80.418 501.21 74.756 503.794 69.892C506.378 65.028 509.988 61.304 514.624 58.72C519.26 56.136 524.542 54.844 530.47 54.844C536.398 54.844 541.566 56.136 545.974 58.72C550.458 61.304 553.878 64.8 556.234 69.208C558.666 73.54 559.882 78.366 559.882 83.686ZM551.788 83.458C551.864 78.822 550.914 74.87 548.938 71.602C547.038 68.334 544.416 65.864 541.072 64.192C537.728 62.52 534.08 61.684 530.128 61.684C524.2 61.684 519.146 63.584 514.966 67.384C510.786 71.184 508.468 76.542 508.012 83.458H551.788ZM580.182 66.814C581.93 62.938 584.59 59.936 588.162 57.808C591.81 55.68 596.256 54.616 601.5 54.616V62.938H599.334C593.558 62.938 588.922 64.496 585.426 67.612C581.93 70.728 580.182 75.934 580.182 83.23V118H572.202V55.756H580.182V66.814ZM667.541 83.686C667.541 86.422 667.465 88.512 667.313 89.956H615.671C615.899 94.668 617.039 98.696 619.091 102.04C621.143 105.384 623.841 107.93 627.185 109.678C630.529 111.35 634.177 112.186 638.129 112.186C643.297 112.186 647.629 110.932 651.125 108.424C654.697 105.916 657.053 102.534 658.193 98.278H666.629C665.109 104.358 661.841 109.336 656.825 113.212C651.885 117.012 645.653 118.912 638.129 118.912C632.277 118.912 627.033 117.62 622.397 115.036C617.761 112.376 614.113 108.652 611.453 103.864C608.869 99 607.577 93.338 607.577 86.878C607.577 80.418 608.869 74.756 611.453 69.892C614.037 65.028 617.647 61.304 622.283 58.72C626.919 56.136 632.201 54.844 638.129 54.844C644.057 54.844 649.225 56.136 653.633 58.72C658.117 61.304 661.537 64.8 663.893 69.208C666.325 73.54 667.541 78.366 667.541 83.686ZM659.447 83.458C659.523 78.822 658.573 74.87 656.597 71.602C654.697 68.334 652.075 65.864 648.731 64.192C645.387 62.52 641.739 61.684 637.787 61.684C631.859 61.684 626.805 63.584 622.625 67.384C618.445 71.184 616.127 76.542 615.671 83.458H659.447Z" fill="#6441A5"/>
<path d="M68.0473 37.972V53.59H46.8433V118H27.3493V53.59H6.1453V37.972H68.0473ZM134.375 85.168C134.375 86.992 134.261 88.892 134.033 90.868H89.9148C90.2188 94.82 91.4728 97.86 93.6768 99.988C95.9568 102.04 98.7308 103.066 101.999 103.066C106.863 103.066 110.245 101.014 112.145 96.91H132.893C131.829 101.09 129.891 104.852 127.079 108.196C124.343 111.54 120.885 114.162 116.705 116.062C112.525 117.962 107.851 118.912 102.683 118.912C96.4508 118.912 90.9028 117.582 86.0388 114.922C81.1748 112.262 77.3748 108.462 74.6388 103.522C71.9028 98.582 70.5348 92.806 70.5348 86.194C70.5348 79.582 71.8648 73.806 74.5248 68.866C77.2608 63.926 81.0608 60.126 85.9248 57.466C90.7888 54.806 96.3748 53.476 102.683 53.476C108.839 53.476 114.311 54.768 119.099 57.352C123.887 59.936 127.611 63.622 130.271 68.41C133.007 73.198 134.375 78.784 134.375 85.168ZM114.425 80.038C114.425 76.694 113.285 74.034 111.005 72.058C108.725 70.082 105.875 69.094 102.455 69.094C99.1868 69.094 96.4128 70.044 94.1328 71.944C91.9288 73.844 90.5608 76.542 90.0288 80.038H114.425ZM137.363 86.194C137.363 79.582 138.693 73.806 141.353 68.866C144.089 63.926 147.851 60.126 152.639 57.466C157.503 54.806 163.051 53.476 169.283 53.476C177.263 53.476 183.913 55.566 189.233 59.746C194.629 63.926 198.163 69.816 199.835 77.416H179.087C177.339 72.552 173.957 70.12 168.941 70.12C165.369 70.12 162.519 71.526 160.391 74.338C158.263 77.074 157.199 81.026 157.199 86.194C157.199 91.362 158.263 95.352 160.391 98.164C162.519 100.9 165.369 102.268 168.941 102.268C173.957 102.268 177.339 99.836 179.087 94.972H199.835C198.163 102.42 194.629 108.272 189.233 112.528C183.837 116.784 177.187 118.912 169.283 118.912C163.051 118.912 157.503 117.582 152.639 114.922C147.851 112.262 144.089 108.462 141.353 103.522C138.693 98.582 137.363 92.806 137.363 86.194ZM245.944 53.704C253.24 53.704 259.092 56.136 263.5 61C267.908 65.788 270.112 72.4 270.112 80.836V118H250.732V83.458C250.732 79.202 249.63 75.896 247.426 73.54C245.222 71.184 242.258 70.006 238.534 70.006C234.81 70.006 231.846 71.184 229.642 73.54C227.438 75.896 226.336 79.202 226.336 83.458V118H206.842V33.64H226.336V62.938C228.312 60.126 231.01 57.884 234.43 56.212C237.85 54.54 241.688 53.704 245.944 53.704Z" fill="white"/>
</svg>
